# xmcd
#
# Track frame offsets:
#	150
#	14252
#	40576
#	58236
#	71811
#	97106
#	109337
#	115279
#	119734
#	125378
#	131038
#	136249
#	141809
#	146407
#	151920
#	158750
#	166025
#	209488
#	237171
#
# Disc length: 3462 seconds
#
# Revision: 0
# Processed by: cddbd v1.5.2PL0 Copyright (c) Steve Scherf et al.
# Submitted via: EasyCDDAExtractor 10.2.0.1
#
DISCID=170d8413
DTITLE=Van Morrison - The Great Van Morrison [cd1]
DYEAR=2001
DGENRE=Blues
TTITLE0=Brown Eyed Girl
TTITLE1=He Aint Give You None
TTITLE2=Spanish Rose
TTITLE3=Goodbye Baby (Baby Goodbye)
TTITLE4=Who Drove The Red Sports Car
TTITLE5=Midnight Special
TTITLE6=Twist And Shake
TTITLE7=Shake And Roll
TTITLE8=Stomp And Scream
TTITLE9=Scream And Holler
TTITLE10=Jump And Thump
TTITLE11=Drivin Wheel
TTITLE12=Just Ball
TTITLE13=Shake It Mable
TTITLE14=Hold On George
TTITLE15=The Big Royalty Check
TTITLE16=T.B. Sheets
TTITLE17=Beside You
TTITLE18=It's All Right
EXTD=
EXTT0=
EXTT1=
EXTT2=
EXTT3=
EXTT4=
EXTT5=
EXTT6=
EXTT7=
EXTT8=
EXTT9=
EXTT10=
EXTT11=
EXTT12=
EXTT13=
EXTT14=
EXTT15=
EXTT16=
EXTT17=
EXTT18=
PLAYORDER=
